<svg viewBox="0 0 512 512" xmlns="http://www.w3.org/2000/svg"><rect height="512" rx="64" ry="64" width="512" fill="#00abf1"/><path d="M456 131.94c-14.717 6.532-30.527 10.94-47.128 12.925 16.936-10.156 29.95-26.243 36.08-45.397-15.855 9.405-33.423 16.226-52.12 19.908-14.96-15.952-36.296-25.914-59.893-25.914-45.327 0-82.074 36.747-82.074 82.067 0 6.43.728 12.687 2.13 18.702-68.208-3.432-128.67-36.095-169.148-85.753-7.066 12.12-11.112 26.212-11.112 41.26 0 28.473 14.483 53.587 36.505 68.304-13.445-.428-26.096-4.117-37.17-10.26-.003.336-.003.682-.003 1.028 0 39.76 28.29 72.925 65.826 80.477-6.887 1.864-14.14 2.874-21.615 2.874-5.294 0-10.43-.53-15.436-1.477 10.44 32.597 40.75 56.327 76.653 56.99-28.078 22.014-63.465 35.135-101.923 35.135-6.618 0-13.15-.39-19.574-1.157 36.326 23.294 79.46 36.882 125.803 36.882 150.944 0 233.49-125.048 233.49-233.49 0-3.567-.08-7.104-.232-10.626 16.02-11.572 29.944-26.02 40.94-42.48z" fill="#fff"/></svg>